<?xml version="1.0" encoding="utf-8"?><svg version="1.1" id="Layer_1" xmlns="http://www.w3.org/2000/svg" xmlns:xlink="http://www.w3.org/1999/xlink" x="0px" y="0px" viewBox="0 0 111.81 122.88" style="enable-background:new 0 0 111.81 122.88" xml:space="preserve"><style type="text/css"><![CDATA[
	.st0{fill-rule:evenodd;clip-rule:evenodd;fill:#4398D1;}
	.st1{fill-rule:evenodd;clip-rule:evenodd;fill:#ED5C56;}
	.st2{fill-rule:evenodd;clip-rule:evenodd;fill:#FFFFFF;}
	.st3{fill:#4398D1;}
]]></style><g><path class="st0" d="M55.71,0c20.85,13.21,39.68,19.47,55.85,17.99c2.82,57.1-18.26,90.82-55.63,104.89 C19.84,109.71-1.5,77.44,0.08,17.12C19.06,18.12,37.67,14.01,55.71,0L55.71,0L55.71,0L55.71,0z"/><path class="st2" d="M55.74,9.61c17.58,11.15,33.47,16.42,47.1,15.17c2.38,48.16-15.41,76.6-46.92,88.47 c-30.43-11.11-48.43-38.32-47.1-89.2C24.83,24.9,40.53,21.44,55.74,9.61L55.74,9.61L55.74,9.61L55.74,9.61z"/><path class="st1" d="M62.41,45.82c-0.93,0-1.68,0.75-1.68,1.68c0,0.93,0.75,1.68,1.68,1.68c0.93,0,1.68-0.75,1.68-1.68 C64.09,46.58,63.34,45.82,62.41,45.82L62.41,45.82L62.41,45.82z M56.74,37.25c1.84,0,3.59,0.55,5.22,1.55 c0.04-0.04,0.09-0.07,0.14-0.1c3.14-2.14,7.24-5.95,7.31-10.02c0.02-1.06,0.89-1.9,1.95-1.89c1.06,0.02,1.91,0.89,1.89,1.95 c-0.09,5.17-4.26,9.75-8.26,12.63c1.73,1.9,3.2,4.38,4.33,7.27l-4.9,4.77c-2.28,0.29-4.88,0.46-7.53,0.49 c-5.07,0.05-10.28-0.44-13.75-1.61c-0.06-0.02-0.12-0.03-0.17-0.05c1.16-4.4,3.05-8.15,5.43-10.79c-4.05-2.89-8.28-7.49-8.38-12.71 c-0.02-1.06,0.83-1.94,1.89-1.95c1.06-0.02,1.94,0.83,1.95,1.89c0.07,4.07,4.17,7.87,7.31,10.02c0.08,0.06,0.15,0.11,0.22,0.17 C53.07,37.83,54.87,37.25,56.74,37.25L56.74,37.25L56.74,37.25z M85.13,53.76l3.92,5.34c0.63,0.86,0.45,2.06-0.41,2.7 c-0.86,0.63-2.06,0.45-2.69-0.41l-3.61-4.91L85.13,53.76L85.13,53.76z M75.08,63.55h6.09c0.69,0,1.3,0.37,1.65,0.92l6.05,7.97 c0.64,0.85,0.48,2.05-0.37,2.7s-2.05,0.48-2.7-0.37l-5.58-7.35h-8.57c-0.07,0-0.14,0-0.21-0.01c-0.15,1.19-0.35,2.36-0.61,3.49 h6.45c1.07,0,1.93,0.86,1.93,1.93v13.53c0,1.07-0.86,1.93-1.93,1.93c-1.07,0-1.93-0.86-1.93-1.93v-11.6h-5.61 c-2.36,6.77-6.59,11.52-11.5,12.33v-7.13L75.08,63.55L75.08,63.55z M58.23,59.46v-2.28c0.83-0.02,1.65-0.06,2.46-0.11L58.23,59.46 L58.23,59.46z M54.92,87.03c-0.99-0.2-1.94-0.56-2.86-1.06l2.86-2.79L54.92,87.03L54.92,87.03L54.92,87.03z M42.51,74.76h-4.57 v4.45l-3.86,3.76l0-10.14c0-1.07,0.86-1.93,1.93-1.93h6.65c-0.25-1.14-0.46-2.31-0.61-3.52c-0.13,0.03-0.27,0.04-0.41,0.04h-8.56 l-5.58,7.35c-0.64,0.85-1.85,1.01-2.69,0.37c-0.85-0.64-1.01-1.85-0.37-2.7l6.05-7.96c0.34-0.55,0.95-0.92,1.65-0.92h9.52 c0.04,0,0.08,0,0.12,0.01c-0.02-0.44-0.02-0.88-0.02-1.33c0-0.87,0.03-1.73,0.08-2.58c-0.11-0.04-0.21-0.09-0.31-0.14l-8.94-5.09 l-5.21,7.1c-0.63,0.86-1.84,1.05-2.7,0.41c-0.86-0.63-1.05-1.83-0.41-2.69l6.23-8.48l0,0c0.57-0.78,1.65-1.02,2.5-0.53l8.58,4.88 c0.16,0.14,0.35,0.25,0.56,0.32h0.01l0.17,0.1l0.01-0.04c3.34,1.09,7.97,1.62,12.63,1.71v5.49L42.51,74.76L42.51,74.76z M51.08,45.82c-0.93,0-1.68,0.75-1.68,1.68c0,0.93,0.75,1.68,1.68,1.68c0.93,0,1.68-0.75,1.68-1.68 C52.77,46.58,52.01,45.82,51.08,45.82L51.08,45.82L51.08,45.82z"/><path class="st3" d="M101.79,22.44c1.17-1.11,3.01-1.06,4.12,0.1c1.11,1.17,1.06,3.01-0.1,4.12l-75.07,74.49 c-1.16,1.11-3.01,1.06-4.12-0.1c-1.11-1.17-1.06-3.01,0.1-4.12L101.79,22.44L101.79,22.44z"/></g></svg>